<?xml version="1.0" encoding="utf-8"?>
<svg version="1.1" xmlns:xlink="http://www.w3.org/1999/xlink" width="20px" height="21px" preserveAspectRatio="xMidYMin meet" viewBox="593 764  18 21" xmlns="http://www.w3.org/2000/svg">
  <path d="M 602 773  L 602 822  A 5 5 0 0 0 607 827 L 1481 827  " stroke-width="2" stroke="#0099cc" fill="none" />
  <path d="M 602 771  A 3.5 3.5 0 0 0 598.5 774.5 A 3.5 3.5 0 0 0 602 778 A 3.5 3.5 0 0 0 605.5 774.5 A 3.5 3.5 0 0 0 602 771 Z M 1475.89289321881 822.707106781187  L 1480.18578643763 827  L 1475.89289321881 831.292893218813  L 1477.30710678119 832.707106781187  L 1482.30710678119 827.707106781187  L 1483.01421356237 827  L 1482.30710678119 826.292893218813  L 1477.30710678119 821.292893218813  L 1475.89289321881 822.707106781187  Z " fill-rule="nonzero" fill="#0099cc" stroke="none" />
</svg>