<?xml version="1.0" encoding="utf-8"?>
<svg version="1.1" xmlns:xlink="http://www.w3.org/1999/xlink" width="21px" height="20px" preserveAspectRatio="xMinYMid meet" viewBox="1309 165  21 18" xmlns="http://www.w3.org/2000/svg">
  <path d="M 1318 174  L 1465 174  A 5 5 0 0 1 1470 179 L 1470 368  A 5 5 0 0 0 1475 373 L 1478 373  " stroke-width="2" stroke="#0099cc" fill="none" />
  <path d="M 1319.5 170.5  A 3.5 3.5 0 0 0 1316 174 A 3.5 3.5 0 0 0 1319.5 177.5 A 3.5 3.5 0 0 0 1323 174 A 3.5 3.5 0 0 0 1319.5 170.5 Z M 1472.89289321881 368.707106781187  L 1477.18578643763 373  L 1472.89289321881 377.292893218813  L 1474.30710678119 378.707106781187  L 1479.30710678119 373.707106781187  L 1480.01421356237 373  L 1479.30710678119 372.292893218813  L 1474.30710678119 367.292893218813  L 1472.89289321881 368.707106781187  Z " fill-rule="nonzero" fill="#0099cc" stroke="none" />
</svg>