<?xml version="1.0" encoding="utf-8"?>
<svg version="1.1" xmlns:xlink="http://www.w3.org/1999/xlink" width="26px" height="26px" xmlns="http://www.w3.org/2000/svg">
  <defs>
    <filter x="231px" y="71px" width="26px" height="26px" filterUnits="userSpaceOnUse" id="filter145">
      <feOffset dx="1" dy="1" in="SourceAlpha" result="shadowOffsetInner" />
      <feGaussianBlur stdDeviation="2.5" in="shadowOffsetInner" result="shadowGaussian" />
      <feComposite in2="shadowGaussian" operator="atop" in="SourceAlpha" result="shadowComposite" />
      <feColorMatrix type="matrix" values="0 0 0 0 0  0 0 0 0 0  0 0 0 0 0  0 0 0 0.698039215686274 0  " in="shadowComposite" />
    </filter>
    <g id="widget146">
      <path d="M 243 75  C 247.48 75  251 78.52  251 83  C 251 87.48  247.48 91  243 91  C 238.52 91  235 87.48  235 83  C 235 78.52  238.52 75  243 75  Z " fill-rule="nonzero" fill="#009dd9" stroke="none" />
      <path d="M 243 75.5  C 247.2 75.5  250.5 78.8  250.5 83  C 250.5 87.2  247.2 90.5  243 90.5  C 238.8 90.5  235.5 87.2  235.5 83  C 235.5 78.8  238.8 75.5  243 75.5  Z " stroke-width="1" stroke="#ffffff" fill="none" />
    </g>
  </defs>
  <g transform="matrix(1 0 0 1 -231 -71 )">
    <use xlink:href="#widget146" filter="url(#filter145)" />
    <use xlink:href="#widget146" />
  </g>
</svg>