<?xml version="1.0" encoding="utf-8"?>
<svg version="1.1" xmlns:xlink="http://www.w3.org/1999/xlink" width="172px" height="31px" xmlns="http://www.w3.org/2000/svg">
  <defs>
    <mask fill="white" id="clip134">
      <path d="M 0 27  L 0 4  C 0 1.76000000000001  3.15333333333332 0  7.16666666666667 0  L 164.833333333333 0  C 168.846666666667 0  172 1.76000000000001  172 4  L 172 27  C 172 29.24  168.846666666667 31  164.833333333333 31  L 82.9824561403508 31  L 7.16666666666667 31  C 3.15333333333332 31  0 29.24  0 27  Z " fill-rule="evenodd" />
    </mask>
  </defs>
  <g transform="matrix(1 0 0 1 -1139 -80 )">
    <path d="M 0 27  L 0 4  C 0 1.76000000000001  3.15333333333332 0  7.16666666666667 0  L 164.833333333333 0  C 168.846666666667 0  172 1.76000000000001  172 4  L 172 27  C 172 29.24  168.846666666667 31  164.833333333333 31  L 82.9824561403508 31  L 7.16666666666667 31  C 3.15333333333332 31  0 29.24  0 27  Z " fill-rule="nonzero" fill="#0099ff" stroke="none" fill-opacity="0.0980392156862745" transform="matrix(1 0 0 1 1139 80 )" />
    <path d="M 0 27  L 0 4  C 0 1.76000000000001  3.15333333333332 0  7.16666666666667 0  L 164.833333333333 0  C 168.846666666667 0  172 1.76000000000001  172 4  L 172 27  C 172 29.24  168.846666666667 31  164.833333333333 31  L 82.9824561403508 31  L 7.16666666666667 31  C 3.15333333333332 31  0 29.24  0 27  Z " stroke-width="2" stroke="#a7d2f9" fill="none" transform="matrix(1 0 0 1 1139 80 )" mask="url(#clip134)" />
  </g>
</svg>