<?xml version="1.0" encoding="utf-8"?>
<svg version="1.1" xmlns:xlink="http://www.w3.org/1999/xlink" width="96px" height="31px" xmlns="http://www.w3.org/2000/svg">
  <defs>
    <mask fill="white" id="clip148">
      <path d="M 0 27  L 0 4  C 0 1.76000000000001  1.75999999999999 0  4 0  L 92 0  C 94.24 0  96 1.76000000000001  96 4  L 96 27  C 96 29.24  94.24 31  92 31  L 46.3157894736842 31  L 4 31  C 1.75999999999999 31  0 29.24  0 27  Z " fill-rule="evenodd" />
    </mask>
  </defs>
  <g transform="matrix(1 0 0 1 -1215 -80 )">
    <path d="M 0 27  L 0 4  C 0 1.76000000000001  1.75999999999999 0  4 0  L 92 0  C 94.24 0  96 1.76000000000001  96 4  L 96 27  C 96 29.24  94.24 31  92 31  L 46.3157894736842 31  L 4 31  C 1.75999999999999 31  0 29.24  0 27  Z " fill-rule="nonzero" fill="#0099ff" stroke="none" fill-opacity="0.0980392156862745" transform="matrix(1 0 0 1 1215 80 )" />
    <path d="M 0 27  L 0 4  C 0 1.76000000000001  1.75999999999999 0  4 0  L 92 0  C 94.24 0  96 1.76000000000001  96 4  L 96 27  C 96 29.24  94.24 31  92 31  L 46.3157894736842 31  L 4 31  C 1.75999999999999 31  0 29.24  0 27  Z " stroke-width="2" stroke="#a7d2f9" fill="none" transform="matrix(1 0 0 1 1215 80 )" mask="url(#clip148)" />
  </g>
</svg>