<?xml version="1.0" encoding="utf-8"?>
<svg version="1.1" xmlns:xlink="http://www.w3.org/1999/xlink" width="24px" height="10px" preserveAspectRatio="xMinYMid meet" viewBox="2935 1040  24 8" xmlns="http://www.w3.org/2000/svg">
  <path d="M 2767 1006  L 2935 1006  A 5 5 0 0 1 2940 1011 L 2940 1039  A 5 5 0 0 0 2945 1044 L 2953 1044  " stroke-width="2" stroke="#0099cc" fill="none" />
  <path d="M 2768.5 1002.5  A 3.5 3.5 0 0 0 2765 1006 A 3.5 3.5 0 0 0 2768.5 1009.5 A 3.5 3.5 0 0 0 2772 1006 A 3.5 3.5 0 0 0 2768.5 1002.5 Z M 2952 1051.6  L 2959 1044  L 2952 1036.4  L 2952 1051.6  Z " fill-rule="nonzero" fill="#0099cc" stroke="none" />
</svg>