<?xml version="1.0" encoding="utf-8"?>
<svg version="1.1" xmlns:xlink="http://www.w3.org/1999/xlink" width="20px" height="20px" preserveAspectRatio="xMinYMid meet" viewBox="2944 1252  20 18" xmlns="http://www.w3.org/2000/svg">
  <path d="M 2776 1045  L 2779 1045  A 5 5 0 0 1 2784 1050 L 2784 1105  A 5 5 0 0 0 2789 1110 L 2935 1110  A 5 5 0 0 1 2940 1115 L 2940 1256  A 5 5 0 0 0 2945 1261 L 2953 1261  " stroke-width="2" stroke="#0099cc" fill="none" />
  <path d="M 2777.5 1041.5  A 3.5 3.5 0 0 0 2774 1045 A 3.5 3.5 0 0 0 2777.5 1048.5 A 3.5 3.5 0 0 0 2781 1045 A 3.5 3.5 0 0 0 2777.5 1041.5 Z M 2952 1268.6  L 2959 1261  L 2952 1253.4  L 2952 1268.6  Z " fill-rule="nonzero" fill="#0099cc" stroke="none" />
</svg>