<svg class="icon" viewBox="0 0 1024 1024" version="1.1" xmlns="http://www.w3.org/2000/svg" p-id="1765" height="128" width="128"><path d="M781.312 737.28h40.96c33.9968 0 61.44-27.4432 61.44-61.44v-184.32c0-33.9968-27.4432-61.44-61.44-61.44H778.24v-40.96h71.68c16.9984 0 30.72-13.7216 30.72-30.72s-13.7216-30.72-30.72-30.72h-74.752c-13.7216-89.088-71.4752-163.4304-150.528-200.2944V32.768c0-16.9984-13.7216-30.72-30.72-30.72h-163.84c-16.9984 0-30.72 13.7216-30.72 30.72v94.6176c-78.848 36.864-136.8064 111.4112-150.528 200.2944H174.08c-16.9984 0-30.72 13.7216-30.72 30.72s13.7216 30.72 30.72 30.72h71.68v40.96H203.776c-33.9968 0-61.44 27.4432-61.44 61.44v184.32c0 33.9968 27.4432 61.44 61.44 61.44H245.76v225.28H174.08c-16.9984 0-30.72 13.7216-30.72 30.72s13.7216 30.72 30.72 30.72h675.84c16.9984 0 30.72-13.7216 30.72-30.72s-13.7216-30.72-30.72-30.72h-71.68V737.28h3.072z m0-245.76h40.96v184.32h-40.96v-184.32z m-536.576 184.32h-40.96v-184.32h40.96v184.32zM460.8 63.488h102.4v43.8272c-16.5888-3.2768-33.5872-4.9152-51.2-4.9152s-34.6112 1.6384-51.2 4.9152V63.488z m51.2 100.352c98.9184 0 181.6576 70.4512 200.704 163.84H311.296c19.0464-93.3888 101.7856-163.84 200.704-163.84zM307.2 962.56V389.12h409.6v573.44H307.2z" fill="#646464" p-id="1766"></path><path d="M593.92 460.8c-16.9984 0-30.72 13.7216-30.72 30.72v368.64c0 16.9984 13.7216 30.72 30.72 30.72s30.72-13.7216 30.72-30.72V491.52c0-16.9984-13.7216-30.72-30.72-30.72zM430.08 460.8c-16.9984 0-30.72 13.7216-30.72 30.72v368.64c0 16.9984 13.7216 30.72 30.72 30.72s30.72-13.7216 30.72-30.72V491.52c0-16.9984-13.7216-30.72-30.72-30.72z" fill="#646464" p-id="1767"></path></svg>