<?xml version="1.0" encoding="utf-8"?>
<svg version="1.1" xmlns:xlink="http://www.w3.org/1999/xlink" width="10px" height="10px" xmlns="http://www.w3.org/2000/svg">
  <defs>
    <mask fill="white" id="clip1">
      <path d="M 5.65793314753606 4.96066743088942  L 9.63012769831731 1.00903741135817  C 9.81795420222356 0.8221456640625  9.81890355994591 0.519300993088942  9.6320117983774 0.331474489182693  C 9.44469649038462 0.143224424579327  9.1423776164363 0.142698627554087  8.95455111253005 0.329590389122597  L 4.98133419846755 4.28164396935096  L 1.04271765174279 0.331036327373798  C 0.856278667367789 0.144159181189904  0.553010435697115 0.143209823467548  0.365183946063702 0.330086969651442  C 0.177795603966346 0.516964115835336  0.177342841045673 0.820246948617789  0.364234588341346 1.00807345252404  L 4.30190177734375 4.95773173677885  L 0.33162054311899 8.90695185922476  C 0.143779438100961 9.09384360652043  0.142844681490384 9.39665907527043  0.3297072265625 9.58451478140024  C 0.423138499098557 9.67845723557692  0.546262709585336 9.7258228140024  0.669386920072115 9.7258228140024  C 0.791576388221154 9.7258228140024  0.913809659705529 9.67940659329928  1.00725553335337 9.58639888146034  L 4.97848611102765 5.63622940129207  L 8.95309055889423 9.62281034329928  C 9.04652183143029 9.71676741286058  9.16922248121995 9.76370943058894  9.29233209059495 9.76370943058894  C 9.41500353816106 9.76370943058894  9.53719299203726 9.71676741286058  9.63062426457332 9.62375970102164  C 9.81793957256611 9.43688255483774  9.81845076847957 9.13412551908053  9.63157362229567 8.94629901517428  L 5.65793314753606 4.96066743088942  Z " fill-rule="evenodd" />
    </mask>
  </defs>
  <g transform="matrix(1 0 0 1 -3272 -314 )">
    <path d="M 5.65793314753606 4.96066743088942  L 9.63012769831731 1.00903741135817  C 9.81795420222356 0.8221456640625  9.81890355994591 0.519300993088942  9.6320117983774 0.331474489182693  C 9.44469649038462 0.143224424579327  9.1423776164363 0.142698627554087  8.95455111253005 0.329590389122597  L 4.98133419846755 4.28164396935096  L 1.04271765174279 0.331036327373798  C 0.856278667367789 0.144159181189904  0.553010435697115 0.143209823467548  0.365183946063702 0.330086969651442  C 0.177795603966346 0.516964115835336  0.177342841045673 0.820246948617789  0.364234588341346 1.00807345252404  L 4.30190177734375 4.95773173677885  L 0.33162054311899 8.90695185922476  C 0.143779438100961 9.09384360652043  0.142844681490384 9.39665907527043  0.3297072265625 9.58451478140024  C 0.423138499098557 9.67845723557692  0.546262709585336 9.7258228140024  0.669386920072115 9.7258228140024  C 0.791576388221154 9.7258228140024  0.913809659705529 9.67940659329928  1.00725553335337 9.58639888146034  L 4.97848611102765 5.63622940129207  L 8.95309055889423 9.62281034329928  C 9.04652183143029 9.71676741286058  9.16922248121995 9.76370943058894  9.29233209059495 9.76370943058894  C 9.41500353816106 9.76370943058894  9.53719299203726 9.71676741286058  9.63062426457332 9.62375970102164  C 9.81793957256611 9.43688255483774  9.81845076847957 9.13412551908053  9.63157362229567 8.94629901517428  L 5.65793314753606 4.96066743088942  Z " fill-rule="nonzero" fill="#c9c9c9" stroke="none" transform="matrix(1 0 0 1 3272 314 )" />
    <path d="M 5.65793314753606 4.96066743088942  L 9.63012769831731 1.00903741135817  C 9.81795420222356 0.8221456640625  9.81890355994591 0.519300993088942  9.6320117983774 0.331474489182693  C 9.44469649038462 0.143224424579327  9.1423776164363 0.142698627554087  8.95455111253005 0.329590389122597  L 4.98133419846755 4.28164396935096  L 1.04271765174279 0.331036327373798  C 0.856278667367789 0.144159181189904  0.553010435697115 0.143209823467548  0.365183946063702 0.330086969651442  C 0.177795603966346 0.516964115835336  0.177342841045673 0.820246948617789  0.364234588341346 1.00807345252404  L 4.30190177734375 4.95773173677885  L 0.33162054311899 8.90695185922476  C 0.143779438100961 9.09384360652043  0.142844681490384 9.39665907527043  0.3297072265625 9.58451478140024  C 0.423138499098557 9.67845723557692  0.546262709585336 9.7258228140024  0.669386920072115 9.7258228140024  C 0.791576388221154 9.7258228140024  0.913809659705529 9.67940659329928  1.00725553335337 9.58639888146034  L 4.97848611102765 5.63622940129207  L 8.95309055889423 9.62281034329928  C 9.04652183143029 9.71676741286058  9.16922248121995 9.76370943058894  9.29233209059495 9.76370943058894  C 9.41500353816106 9.76370943058894  9.53719299203726 9.71676741286058  9.63062426457332 9.62375970102164  C 9.81793957256611 9.43688255483774  9.81845076847957 9.13412551908053  9.63157362229567 8.94629901517428  L 5.65793314753606 4.96066743088942  Z " stroke-width="2" stroke="#7f7f7f" fill="none" transform="matrix(1 0 0 1 3272 314 )" mask="url(#clip1)" />
  </g>
</svg>