<?xml version="1.0" encoding="utf-8"?>
<svg version="1.1" xmlns:xlink="http://www.w3.org/1999/xlink" width="21px" height="20px" preserveAspectRatio="xMinYMid meet" viewBox="2767 1036  21 18" xmlns="http://www.w3.org/2000/svg">
  <path d="M 2776 1045  L 2779 1045  A 5 5 0 0 1 2784 1050 L 2784 1060  A 5 5 0 0 0 2789 1065 L 2953 1065  " stroke-width="2" stroke="#0099cc" fill="none" />
  <path d="M 2777.5 1041.5  A 3.5 3.5 0 0 0 2774 1045 A 3.5 3.5 0 0 0 2777.5 1048.5 A 3.5 3.5 0 0 0 2781 1045 A 3.5 3.5 0 0 0 2777.5 1041.5 Z M 2952 1072.6  L 2959 1065  L 2952 1057.4  L 2952 1072.6  Z " fill-rule="nonzero" fill="#0099cc" stroke="none" />
</svg>