<?xml version="1.0" encoding="utf-8"?>
<svg version="1.1" xmlns:xlink="http://www.w3.org/1999/xlink" width="32px" height="30px" xmlns="http://www.w3.org/2000/svg">
  <g transform="matrix(1 0 0 1 -186 -88 )">
    <path d="M 31.5679949335937 9.3404831171875  C 31.8444674453125 8.42983256640625  31.7428363515625 7.6142655390625  31.2270540507812 6.89802715234375  C 30.9664827109375 6.53528510546875  30.5830186914063 6.27309485546875  30.1099394570312 6.084079  C 30.1290065195313 6.519455828125  30.1022406601562 6.87676556640625  30.015431546875 7.16298750390625  L 24.3349549140625 25.8520283125  C 24.1328799179688 26.516389890625  23.3506262851562 26.9305050976563  22.6119750859375 27  L 5.1354561484375 27  C 3.6205232734375 26.9305051328125  2.72188853125 26.4912429414063  2.40825319140625 25.6051996914062  C 2.2864397734375 25.2610210585937  2.29036113671875 24.9965643554688  2.42742818359375 24.791143609375  C 2.55582513671875 24.5988180039062  2.80603547265625 24.5070801953125  3.14748000390625 24  L 19.6013922578125 24  C 20.7752763554688 24.5070801953125  21.5843678125 24.2939966523437  22.0252488789063 23.8635485195312  C 22.4748360742188 23.42324303125  22.9353598164063 22.44427478125  23.3882927265625 20.9473657070312  L 28.5764791328125 3.79290044921875  C 28.8573047265625 2.86422609765625  28.746859609375 2.03167856640625  28.2355382851563 1.331305421875  C 27.7241809960938 0.630392628906248  27.0047767539063 0.270960332031249  26.0771816640625 0.270960332031249  L 11.6674754453125 0.270960296875  C 11.49709496875 0.270960296875  11.1752931484375 0.32772980078125  10.701638265625 0.44141273828125  L 10.7208132578125 0.38457126953125  C 8.29684870703125 -0.297238460937499  8.1914401796875 2.3026468046875  7.36921765234375 3.47109859375  C 7.11245974609375 3.83661077734375  6.5972890234375 4.38074184765625  6.53613047265625 4.6451265859375  C 6.483714015625 4.87292414453125  6.65413045703125 5.42140826171875  6.63117803125 5.629599109375  C 6.57876157421875 6.10379360546875  6.395789640625 6.72437285546875  6.10075364453125 7.4656862265625  C 5.8084518203125 8.20099167578125  5.5516579140625 8.73530142578125  5.30533294140625 9.05645566796875  L 4.88905917578125 9.4918684609375  C 4.6760116328125 9.71477332421875  4.52908723046875 9.88954284765625  4.47278541015625 10.0600312539062  C 4.415404328125 10.1167647929687  4.40608662109375 10.307507453125  4.4536463828125 10.5899159921875  C 4.50117014453125 10.8762098945312  4.52635309375 11.08220621875  4.5104878515625 11.196284875  C 4.45040859765625 11.6311940195312  4.30240493359375 12.1998604609375  4.03683300390625 12.900161640625  C 3.7719086171875 13.6010384335937  3.50252325390625 14.1851024335937  3.24202387890625 14.6423524257812  C 3.19989642578125 14.71603046875  3.0901348515625 14.8696103359375  2.9196464453125 15.0776932539062  C 2.7497696171875 15.2858841015625  2.63500741796875 15.4748279921875  2.59788058984375 15.6081895703125  C 2.539959859375 15.8157688398438  2.6738610859375 16.4598401640625  2.59788058984375 16.7062371015625  C 2.5033726796875 17.1791005117188  2.31766657421875 17.7680212070312  2.02978976171875 18.4475285195313  C 1.74950378125 19.1118181328125  1.4631739140625 19.6985803046875  1.17752758984375 20.1716595742188  C 0.914186148437499 20.607576015625  0.428047738281249 21.0992546640625  0.401785527343749 21.4586869609375  C 0.390345296874999 21.6116192851563  0.537809312499999 22.02688571875  0.514856851562499 22.2344290234375  L 0.4394880390625 22.9358814648437  C 0.40887278125 23.2211320703125  0.3826465703125 23.39046925  0.3826465703125 23.4472027890625  C 0.0985471914062503 24.2044533671875  0.11336913671875 25.0009173671875  0.420313046875 25.8520283125  C 0.77596791015625 26.8375441328125  1.4064764453125 27.6680050703125  2.29525383203125 28.33225871875  C 3.20540076953125 29.0118019960937  4.1504799765625 29.3549373320312  5.11635312109375 29  L 22.5929080234375 29  C 23.406892140625 29.3549373320312  24.17990003125 29.06648490625  24.9032256367187 28.5212745390625  C 25.6379914726562 27.9673221132812  26.11384084375 27.3095800703125  26.361281078125 26.4955239882812  L 31.5679949335937 9.3404831171875  Z M 9.509082859375 11.7829751523437  L 9.9067572109375 10.5713526132813  C 10.0111224414062 10.2522489648438  10.3804120585937 9.96552337890625  10.701638265625 10  L 22.2142646992187 10  C 22.5736969960937 9.96552337890625  22.73544334375 10.2522489648438  22.6305384648438 10.5713526132813  L 22.2334037265625 11.7829751171875  C 22.1284988476562 12.102078765625  21.7597488789063 12.3888043515625  21.4379830234375 12.3888043515625  L 9.925356625 12.3888043867187  C 9.565888328125 12.3888043867187  9.40417798046875 12.1020428007813  9.509082859375 11.7829751523437  Z M 11.0807852382812 6.93569359375  L 11.4779199765625 5.72407108984375  C 11.5828248554688 5.40496744140625  11.9515748242187 5.11824185546875  12.2733406796875 5.11824185546875  L 23.7859671132812 5.11824185546875  C 24.1460469882812 5.11824185546875  24.3071097929687 5.40500344140625  24.2022049140625 5.72407108984375  L 23.8045665273437 6.93569359375  C 23.7002372617187 7.25472527734375  23.3308756796875 7.5420624765625  23.0096494726562 8  L 11.4970590039062 8  C 11.1375907070312 7.5420624765625  10.975880359375 7.2546893125  11.0807852382812 6.93569359375  Z " fill-rule="nonzero" fill="#555555" stroke="none" transform="matrix(1 0 0 1 186 88 )" />
  </g>
</svg>