<?xml version="1.0" encoding="utf-8"?>
<svg version="1.1" xmlns:xlink="http://www.w3.org/1999/xlink" width="55px" height="10px" preserveAspectRatio="xMinYMid meet" viewBox="1180 436  55 8" xmlns="http://www.w3.org/2000/svg">
  <path d="M 1182 440  L 1225 440  A 5 5 0 0 1 1230 445 L 1230 1239  A 5 5 0 0 0 1235 1244 L 1549 1244  " stroke-width="2" stroke="#0099cc" fill="none" />
  <path d="M 1183.5 436.5  A 3.5 3.5 0 0 0 1180 440 A 3.5 3.5 0 0 0 1183.5 443.5 A 3.5 3.5 0 0 0 1187 440 A 3.5 3.5 0 0 0 1183.5 436.5 Z M 1548 1251.6  L 1555 1244  L 1548 1236.4  L 1548 1251.6  Z " fill-rule="nonzero" fill="#0099cc" stroke="none" />
</svg>