<?xml version="1.0" encoding="utf-8"?>
<svg version="1.1" xmlns:xlink="http://www.w3.org/1999/xlink" width="35px" height="35px" xmlns="http://www.w3.org/2000/svg">
  <defs>
    <filter x="2116px" y="71px" width="35px" height="35px" filterUnits="userSpaceOnUse" id="filter143">
      <feOffset dx="1" dy="1" in="SourceAlpha" result="shadowOffsetInner" />
      <feGaussianBlur stdDeviation="2.5" in="shadowOffsetInner" result="shadowGaussian" />
      <feComposite in2="shadowGaussian" operator="atop" in="SourceAlpha" result="shadowComposite" />
      <feColorMatrix type="matrix" values="0 0 0 0 0  0 0 0 0 0  0 0 0 0 0  0 0 0 0.698039215686274 0  " in="shadowComposite" />
    </filter>
    <g id="widget144">
      <path d="M 2132.5 75  C 2139.5 75  2145 80.5  2145 87.5  C 2145 94.5  2139.5 100  2132.5 100  C 2125.5 100  2120 94.5  2120 87.5  C 2120 80.5  2125.5 75  2132.5 75  Z " fill-rule="nonzero" fill="#009dd9" stroke="none" />
      <path d="M 2132.5 75.5  C 2139.22 75.5  2144.5 80.78  2144.5 87.5  C 2144.5 94.22  2139.22 99.5  2132.5 99.5  C 2125.78 99.5  2120.5 94.22  2120.5 87.5  C 2120.5 80.78  2125.78 75.5  2132.5 75.5  Z " stroke-width="1" stroke="#ffffff" fill="none" />
    </g>
  </defs>
  <g transform="matrix(1 0 0 1 -2116 -71 )">
    <use xlink:href="#widget144" filter="url(#filter143)" />
    <use xlink:href="#widget144" />
  </g>
</svg>