<?xml version="1.0" encoding="utf-8"?>
<svg version="1.1" xmlns:xlink="http://www.w3.org/1999/xlink" width="20px" height="20px" preserveAspectRatio="xMinYMid meet" viewBox="2944 211  20 18" xmlns="http://www.w3.org/2000/svg">
  <path d="M 2787 204  L 2935 204  A 5 5 0 0 1 2940 209 L 2940 215  A 5 5 0 0 0 2945 220 L 2953 220  " stroke-width="2" stroke="#0099cc" fill="none" />
  <path d="M 2788.5 200.5  A 3.5 3.5 0 0 0 2785 204 A 3.5 3.5 0 0 0 2788.5 207.5 A 3.5 3.5 0 0 0 2792 204 A 3.5 3.5 0 0 0 2788.5 200.5 Z M 2952 227.6  L 2959 220  L 2952 212.4  L 2952 227.6  Z " fill-rule="nonzero" fill="#0099cc" stroke="none" />
</svg>