<?xml version="1.0" encoding="utf-8"?>
<svg version="1.1" xmlns:xlink="http://www.w3.org/1999/xlink" width="21px" height="20px" preserveAspectRatio="xMinYMid meet" viewBox="2767 177  21 18" xmlns="http://www.w3.org/2000/svg">
  <path d="M 2776 186  L 2975 186  A 5 5 0 0 1 2980 191 L 2980 196  A 5 5 0 0 0 2985 201 L 2985 201  " stroke-width="2" stroke="#0099cc" fill="none" />
  <path d="M 2777.5 182.5  A 3.5 3.5 0 0 0 2774 186 A 3.5 3.5 0 0 0 2777.5 189.5 A 3.5 3.5 0 0 0 2781 186 A 3.5 3.5 0 0 0 2777.5 182.5 Z M 2984 208.6  L 2991 201  L 2984 193.4  L 2984 208.6  Z " fill-rule="nonzero" fill="#0099cc" stroke="none" />
</svg>