<?xml version="1.0" encoding="utf-8"?>
<svg version="1.1" xmlns:xlink="http://www.w3.org/1999/xlink" width="20px" height="20px" preserveAspectRatio="xMinYMid meet" viewBox="1540 1235  20 18" xmlns="http://www.w3.org/2000/svg">
  <path d="M 1365 386  A 5 5 0 0 0 1360 391 L 1360 1239  A 5 5 0 0 0 1365 1244 L 1549 1244  " stroke-width="2" stroke="#0099cc" fill="none" />
  <path d="M 1362.60287230698 383.112087190548  A 3.5 3.5 0 0 0 1359.10287230698 386.612087190548 A 3.5 3.5 0 0 0 1362.60287230698 390.112087190548 A 3.5 3.5 0 0 0 1366.10287230698 386.612087190548 A 3.5 3.5 0 0 0 1362.60287230698 383.112087190548 Z M 1548 1251.6  L 1555 1244  L 1548 1236.4  L 1548 1251.6  Z " fill-rule="nonzero" fill="#0099cc" stroke="none" />
</svg>